<svg viewBox="0 0 595 600" fill="none" xmlns="http://www.w3.org/2000/svg">
<path d="M251.2 249.6C251.2 232.267 245.867 218.4 235.2 208C224.533 197.333 209.733 192 190.8 192C181.733 192 173.333 193.6 165.6 196.8C158.133 200 151.6 204.667 146 210.8C140.667 216.667 136.4 223.733 133.2 232C130.267 240.267 128.8 249.333 128.8 259.2V300.8H133.6C140 289.067 149.067 279.867 160.8 273.2C172.8 266.533 186.133 263.2 200.8 263.2C213.6 263.2 225.467 265.333 236.4 269.6C247.333 273.6 256.667 279.6 264.4 287.6C272.4 295.6 278.533 305.333 282.8 316.8C287.333 328 289.6 340.8 289.6 355.2V360C289.6 373.867 287.067 386.533 282 398C277.2 409.467 270.4 419.333 261.6 427.6C253.067 435.867 242.8 442.267 230.8 446.8C219.067 451.333 206.267 453.6 192.4 453.6C178.533 453.6 165.6 451.333 153.6 446.8C141.867 442.267 131.6 436 122.8 428C114.267 419.733 107.467 410 102.4 398.8C97.6 387.333 95.2 374.8 95.2 361.2V259.2C95.2 244.533 97.7333 231.2 102.8 219.2C107.867 207.2 114.8 197.067 123.6 188.8C132.4 180.267 142.533 173.733 154 169.2C165.733 164.667 178.267 162.4 191.6 162.4C204.933 162.4 217.333 164.4 228.8 168.4C240.267 172.4 250.133 178.267 258.4 186C266.667 193.467 273.067 202.667 277.6 213.6C282.4 224.267 284.8 236.267 284.8 249.6H251.2ZM192.4 424C202 424 210.667 422.533 218.4 419.6C226.4 416.4 233.2 412 238.8 406.4C244.4 400.8 248.667 394.133 251.6 386.4C254.533 378.667 256 370.133 256 360.8V356C256 346.667 254.4 338.133 251.2 330.4C248 322.667 243.6 316 238 310.4C232.4 304.8 225.6 300.533 217.6 297.6C209.867 294.4 201.467 292.8 192.4 292.8C183.333 292.8 174.933 294.4 167.2 297.6C159.467 300.8 152.667 305.2 146.8 310.8C141.2 316.4 136.8 322.933 133.6 330.4C130.4 337.867 128.8 345.867 128.8 354.4V362C128.8 370.8 130.267 379.067 133.2 386.8C136.133 394.267 140.4 400.8 146 406.4C151.6 412 158.267 416.4 166 419.6C174 422.533 182.8 424 192.4 424ZM433.322 225.6C433.322 235.2 431.722 243.733 428.522 251.2C425.322 258.4 420.922 264.667 415.322 270C409.989 275.067 403.722 278.933 396.522 281.6C389.589 284.267 382.255 285.6 374.522 285.6C366.789 285.6 359.322 284.267 352.122 281.6C345.189 278.933 338.922 275.067 333.322 270C327.989 264.667 323.722 258.4 320.522 251.2C317.322 243.733 315.722 235.2 315.722 225.6C315.722 216 317.322 207.6 320.522 200.4C323.722 192.933 327.989 186.667 333.322 181.6C338.922 176.267 345.189 172.267 352.122 169.6C359.322 166.933 366.789 165.6 374.522 165.6C382.255 165.6 389.589 166.933 396.522 169.6C403.722 172.267 409.989 176.267 415.322 181.6C420.922 186.667 425.322 192.933 428.522 200.4C431.722 207.6 433.322 216 433.322 225.6ZM374.522 264C384.922 264 393.322 260.533 399.722 253.6C406.122 246.4 409.322 237.067 409.322 225.6C409.322 214.133 406.122 204.933 399.722 198C393.322 190.8 384.922 187.2 374.522 187.2C364.122 187.2 355.722 190.8 349.322 198C342.922 204.933 339.722 214.133 339.722 225.6C339.722 238.4 342.922 248 349.322 254.4C355.722 260.8 364.122 264 374.522 264ZM519.322 390.4C519.322 400 517.722 408.533 514.522 416C511.322 423.2 506.922 429.467 501.322 434.8C495.989 439.867 489.722 443.733 482.522 446.4C475.589 449.067 468.255 450.4 460.522 450.4C452.789 450.4 445.322 449.067 438.122 446.4C431.189 443.733 424.922 439.867 419.322 434.8C413.989 429.467 409.722 423.2 406.522 416C403.322 408.533 401.722 400 401.722 390.4C401.722 380.8 403.322 372.4 406.522 365.2C409.722 357.733 413.989 351.467 419.322 346.4C424.922 341.067 431.189 337.067 438.122 334.4C445.322 331.733 452.789 330.4 460.522 330.4C468.255 330.4 475.589 331.733 482.522 334.4C489.722 337.067 495.989 341.067 501.322 346.4C506.922 351.467 511.322 357.733 514.522 365.2C517.722 372.4 519.322 380.8 519.322 390.4ZM460.522 428.8C470.922 428.8 479.322 425.333 485.722 418.4C492.122 411.2 495.322 401.867 495.322 390.4C495.322 378.933 492.122 369.733 485.722 362.8C479.322 355.6 470.922 352 460.522 352C450.122 352 441.722 355.6 435.322 362.8C428.922 369.733 425.722 378.933 425.722 390.4C425.722 403.2 428.922 412.8 435.322 419.2C441.722 425.6 450.122 428.8 460.522 428.8ZM507.322 250.4L516.922 268.8L327.722 365.2L318.122 346.8L507.322 250.4Z" fill="#CECCC7"/>
<mask id="path-2-inside-1_1201_254" fill="white">
<path d="M518.586 501.566C469.033 556.6 400.737 591.174 327.048 598.529C253.36 605.884 179.577 585.492 120.124 541.339C60.6713 497.186 19.8234 432.446 5.56577 359.777C-8.69184 287.108 4.66603 211.733 43.0279 148.389C81.3898 85.0448 141.998 38.2853 213.003 17.252C284.008 -3.78145 360.305 2.42347 426.978 34.6537C493.651 66.8838 545.907 122.822 573.53 191.532C601.152 260.243 602.155 336.785 576.343 406.196L297.5 302.5L518.586 501.566Z"/>
</mask>
<path d="M518.586 501.566C469.033 556.6 400.737 591.174 327.048 598.529C253.36 605.884 179.577 585.492 120.124 541.339C60.6713 497.186 19.8234 432.446 5.56577 359.777C-8.69184 287.108 4.66603 211.733 43.0279 148.389C81.3898 85.0448 141.998 38.2853 213.003 17.252C284.008 -3.78145 360.305 2.42347 426.978 34.6537C493.651 66.8838 545.907 122.822 573.53 191.532C601.152 260.243 602.155 336.785 576.343 406.196L297.5 302.5L518.586 501.566Z" fill="#222021" stroke="#D9D9D9" stroke-width="2" mask="url(#path-2-inside-1_1201_254)"/>
<path d="M251.2 249.6H250.7V250.1H251.2V249.6ZM235.2 208L234.846 208.354L234.851 208.358L235.2 208ZM165.6 196.8L165.409 196.338L165.403 196.34L165.6 196.8ZM146 210.8L145.631 210.463L145.63 210.464L146 210.8ZM133.2 232L132.734 231.819L132.731 231.826L132.729 231.833L133.2 232ZM128.8 300.8H128.3V301.3H128.8V300.8ZM133.6 300.8V301.3H133.897L134.039 301.039L133.6 300.8ZM160.8 273.2L160.557 272.763L160.553 272.765L160.8 273.2ZM236.4 269.6L236.218 270.066L236.228 270.07L236.4 269.6ZM264.4 287.6L264.04 287.948L264.046 287.954L264.4 287.6ZM282.8 316.8L282.331 316.974L282.334 316.981L282.337 316.988L282.8 316.8ZM282 398L281.543 397.798L281.539 397.807L282 398ZM261.6 427.6L261.258 427.236L261.252 427.241L261.6 427.6ZM230.8 446.8L230.623 446.332L230.62 446.334L230.8 446.8ZM153.6 446.8L153.42 447.266L153.423 447.268L153.6 446.8ZM122.8 428L122.452 428.359L122.458 428.365L122.464 428.37L122.8 428ZM102.4 398.8L101.939 398.993L101.942 399L101.944 399.006L102.4 398.8ZM123.6 188.8L123.942 189.164L123.948 189.159L123.6 188.8ZM154 169.2L153.82 168.734L153.816 168.735L154 169.2ZM228.8 168.4L228.965 167.928L228.8 168.4ZM258.4 186L258.058 186.365L258.065 186.371L258.4 186ZM277.6 213.6L277.138 213.792L277.141 213.798L277.144 213.805L277.6 213.6ZM284.8 249.6V250.1H285.3V249.6H284.8ZM218.4 419.6L218.577 420.068L218.586 420.064L218.4 419.6ZM251.6 386.4L251.133 386.223L251.6 386.4ZM251.2 330.4L250.738 330.591L251.2 330.4ZM217.6 297.6L217.409 298.062L217.418 298.066L217.428 298.069L217.6 297.6ZM146.8 310.8L146.455 310.438L146.446 310.446L146.8 310.8ZM133.6 330.4L134.06 330.597L133.6 330.4ZM133.2 386.8L132.732 386.977L132.735 386.983L133.2 386.8ZM166 419.6L165.809 420.062L165.818 420.066L165.828 420.069L166 419.6ZM251.7 249.6C251.7 232.156 246.328 218.152 235.549 207.642L234.851 208.358C245.405 218.648 250.7 232.378 250.7 249.6H251.7ZM235.554 207.646C224.771 196.863 209.83 191.5 190.8 191.5V192.5C209.636 192.5 224.296 197.803 234.846 208.354L235.554 207.646ZM190.8 191.5C181.673 191.5 173.208 193.111 165.409 196.338L165.791 197.262C173.459 194.089 181.793 192.5 190.8 192.5V191.5ZM165.403 196.34C157.869 199.569 151.278 204.278 145.631 210.463L146.369 211.137C151.922 205.055 158.397 200.431 165.797 197.26L165.403 196.34ZM145.63 210.464C140.251 216.381 135.953 223.502 132.734 231.819L133.666 232.18C136.847 223.965 141.083 216.952 146.37 211.136L145.63 210.464ZM132.729 231.833C129.774 240.159 128.3 249.283 128.3 259.2H129.3C129.3 249.383 130.759 240.374 133.671 232.167L132.729 231.833ZM128.3 259.2V300.8H129.3V259.2H128.3ZM128.8 301.3H133.6V300.3H128.8V301.3ZM134.039 301.039C140.394 289.389 149.394 280.256 161.047 273.635L160.553 272.765C148.74 279.477 139.606 288.745 133.161 300.561L134.039 301.039ZM161.043 273.637C172.963 267.014 186.212 263.7 200.8 263.7V262.7C186.054 262.7 172.637 266.052 160.557 272.763L161.043 273.637ZM200.8 263.7C213.543 263.7 225.348 265.824 236.218 270.066L236.582 269.134C225.585 264.843 213.657 262.7 200.8 262.7V263.7ZM236.228 270.07C247.094 274.045 256.362 280.004 264.041 287.948L264.76 287.252C256.971 279.196 247.573 273.155 236.572 269.13L236.228 270.07ZM264.046 287.954C271.992 295.899 278.088 305.569 282.331 316.974L283.269 316.626C278.979 305.097 272.808 295.301 264.754 287.246L264.046 287.954ZM282.337 316.988C286.842 328.118 289.1 340.852 289.1 355.2H290.1C290.1 340.748 287.825 327.882 283.263 316.612L282.337 316.988ZM289.1 355.2V360H290.1V355.2H289.1ZM289.1 360C289.1 373.805 286.578 386.401 281.543 397.798L282.457 398.202C287.555 386.665 290.1 373.929 290.1 360H289.1ZM281.539 397.807C276.765 409.211 270.005 419.018 261.258 427.236L261.942 427.964C270.795 419.648 277.635 409.723 282.461 398.193L281.539 397.807ZM261.252 427.241C252.772 435.456 242.565 441.821 230.623 446.332L230.977 447.268C243.035 442.712 253.362 436.277 261.948 427.959L261.252 427.241ZM230.62 446.334C218.95 450.843 206.211 453.1 192.4 453.1V454.1C206.322 454.1 219.184 451.824 230.98 447.266L230.62 446.334ZM192.4 453.1C178.589 453.1 165.716 450.843 153.777 446.332L153.423 447.268C165.484 451.824 178.478 454.1 192.4 454.1V453.1ZM153.78 446.334C142.101 441.821 131.888 435.586 123.136 427.63L122.464 428.37C131.312 436.414 141.632 442.712 153.42 447.266L153.78 446.334ZM123.148 427.641C114.661 419.42 107.897 409.739 102.856 398.594L101.944 399.006C107.036 410.261 113.872 420.047 122.452 428.359L123.148 427.641ZM102.861 398.607C98.0891 387.207 95.7 374.74 95.7 361.2H94.7C94.7 374.86 97.1109 387.46 101.939 398.993L102.861 398.607ZM95.7 361.2V259.2H94.7V361.2H95.7ZM95.7 259.2C95.7 244.592 98.223 231.326 103.261 219.394L102.339 219.006C97.2436 231.074 94.7 244.475 94.7 259.2H95.7ZM103.261 219.394C108.302 207.454 115.197 197.38 123.942 189.164L123.258 188.436C114.403 196.754 107.431 206.946 102.339 219.006L103.261 219.394ZM123.948 189.159C132.701 180.672 142.778 174.174 154.184 169.665L153.816 168.735C142.289 173.292 132.099 179.862 123.252 188.441L123.948 189.159ZM154.18 169.666C165.853 165.157 178.325 162.9 191.6 162.9V161.9C178.209 161.9 165.614 164.177 153.82 168.734L154.18 169.666ZM191.6 162.9C204.883 162.9 217.227 164.892 228.635 168.872L228.965 167.928C217.44 163.908 204.984 161.9 191.6 161.9V162.9ZM228.635 168.872C240.041 172.851 249.846 178.683 258.058 186.365L258.742 185.635C250.42 177.851 240.492 171.949 228.965 167.928L228.635 168.872ZM258.065 186.371C266.273 193.785 272.631 202.922 277.138 213.792L278.062 213.408C273.502 202.411 267.06 193.148 258.735 185.629L258.065 186.371ZM277.144 213.805C281.911 224.399 284.3 236.328 284.3 249.6H285.3C285.3 236.206 282.889 224.134 278.056 213.395L277.144 213.805ZM284.8 249.1H251.2V250.1H284.8V249.1ZM192.4 424.5C202.051 424.5 210.779 423.025 218.577 420.068L218.223 419.133C210.554 422.041 201.949 423.5 192.4 423.5V424.5ZM218.586 420.064C226.643 416.841 233.502 412.406 239.154 406.754L238.446 406.046C232.898 411.594 226.157 415.959 218.214 419.136L218.586 420.064ZM239.154 406.754C244.806 401.101 249.11 394.374 252.068 386.577L251.133 386.223C248.223 393.893 243.994 400.499 238.446 406.046L239.154 406.754ZM252.068 386.577C255.025 378.781 256.5 370.186 256.5 360.8H255.5C255.5 370.08 254.042 378.553 251.133 386.223L252.068 386.577ZM256.5 360.8V356H255.5V360.8H256.5ZM256.5 356C256.5 346.609 254.89 338.009 251.662 330.209L250.738 330.591C253.91 338.257 255.5 346.725 255.5 356H256.5ZM251.662 330.209C248.438 322.418 244.003 315.696 238.354 310.046L237.646 310.754C243.197 316.304 247.562 322.915 250.738 330.591L251.662 330.209ZM238.354 310.046C232.698 304.391 225.835 300.087 217.772 297.131L217.428 298.069C225.365 300.98 232.102 305.209 237.646 310.754L238.354 310.046ZM217.791 297.138C209.992 293.911 201.527 292.3 192.4 292.3V293.3C201.407 293.3 209.741 294.889 217.409 298.062L217.791 297.138ZM192.4 292.3C183.273 292.3 174.808 293.911 167.009 297.138L167.391 298.062C175.059 294.889 183.393 293.3 192.4 293.3V292.3ZM167.009 297.138C159.22 300.361 152.368 304.794 146.455 310.438L147.145 311.162C152.966 305.606 159.713 301.239 167.391 298.062L167.009 297.138ZM146.446 310.446C140.8 316.093 136.365 322.679 133.14 330.203L134.06 330.597C137.235 323.187 141.6 316.707 147.154 311.154L146.446 310.446ZM133.14 330.203C129.912 337.735 128.3 345.802 128.3 354.4H129.3C129.3 345.931 130.888 337.998 134.06 330.597L133.14 330.203ZM128.3 354.4V362H129.3V354.4H128.3ZM128.3 362C128.3 370.857 129.776 379.184 132.733 386.977L133.668 386.623C130.757 378.95 129.3 370.743 129.3 362H128.3ZM132.735 386.983C135.693 394.513 139.997 401.104 145.646 406.754L146.354 406.046C140.803 400.496 136.574 394.021 133.665 386.617L132.735 386.983ZM145.646 406.754C151.296 412.403 158.018 416.838 165.809 420.062L166.191 419.138C158.515 415.962 151.904 411.597 146.354 406.046L145.646 406.754ZM165.828 420.069C173.89 423.025 182.749 424.5 192.4 424.5V423.5C182.851 423.5 174.11 422.041 166.172 419.131L165.828 420.069ZM428.522 251.2L428.979 251.403L428.981 251.397L428.522 251.2ZM415.322 270L415.666 270.362L415.667 270.362L415.322 270ZM396.522 281.6L396.348 281.131L396.342 281.133L396.522 281.6ZM352.122 281.6L351.942 282.067L351.948 282.069L352.122 281.6ZM333.322 270L332.968 270.354L332.977 270.362L332.986 270.371L333.322 270ZM320.522 251.2L320.062 251.397L320.065 251.403L320.522 251.2ZM320.522 200.4L320.979 200.603L320.981 200.597L320.522 200.4ZM333.322 181.6L333.666 181.962L333.667 181.962L333.322 181.6ZM352.122 169.6L351.948 169.131L351.942 169.133L352.122 169.6ZM396.522 169.6L396.342 170.067L396.348 170.069L396.522 169.6ZM415.322 181.6L414.968 181.954L414.977 181.962L414.986 181.971L415.322 181.6ZM428.522 200.4L428.062 200.597L428.065 200.603L428.522 200.4ZM399.722 253.6L400.089 253.939L400.096 253.932L399.722 253.6ZM399.722 198L399.348 198.332L399.354 198.339L399.722 198ZM349.322 198L349.689 198.339L349.696 198.332L349.322 198ZM349.322 254.4L349.675 254.046L349.322 254.4ZM514.522 416L514.979 416.203L514.981 416.197L514.522 416ZM501.322 434.8L501.666 435.163L501.667 435.162L501.322 434.8ZM482.522 446.4L482.348 445.931L482.342 445.933L482.522 446.4ZM438.122 446.4L437.942 446.867L437.948 446.869L438.122 446.4ZM419.322 434.8L418.968 435.154L418.977 435.162L418.986 435.171L419.322 434.8ZM406.522 416L406.062 416.197L406.065 416.203L406.522 416ZM406.522 365.2L406.979 365.403L406.981 365.397L406.522 365.2ZM419.322 346.4L419.666 346.762L419.667 346.762L419.322 346.4ZM438.122 334.4L437.948 333.931L437.942 333.933L438.122 334.4ZM482.522 334.4L482.342 334.867L482.348 334.869L482.522 334.4ZM501.322 346.4L500.968 346.754L500.977 346.762L500.986 346.771L501.322 346.4ZM514.522 365.2L514.062 365.397L514.065 365.403L514.522 365.2ZM485.722 418.4L486.089 418.739L486.096 418.732L485.722 418.4ZM485.722 362.8L485.348 363.132L485.354 363.139L485.722 362.8ZM435.322 362.8L435.689 363.139L435.696 363.132L435.322 362.8ZM435.322 419.2L434.968 419.554L435.322 419.2ZM507.322 250.4L507.765 250.169L507.536 249.73L507.095 249.954L507.322 250.4ZM516.922 268.8L517.149 269.246L517.599 269.016L517.365 268.569L516.922 268.8ZM327.722 365.2L327.279 365.431L327.508 365.87L327.949 365.646L327.722 365.2ZM318.122 346.8L317.895 346.354L317.445 346.584L317.679 347.031L318.122 346.8ZM432.822 225.6C432.822 235.144 431.231 243.609 428.062 251.003L428.981 251.397C432.213 243.858 433.822 235.256 433.822 225.6H432.822ZM428.065 250.997C424.891 258.138 420.529 264.351 414.977 269.638L415.667 270.362C421.315 264.983 425.753 258.662 428.979 251.403L428.065 250.997ZM414.978 269.637C409.695 274.655 403.488 278.487 396.348 281.131L396.696 282.069C403.956 279.38 410.282 275.478 415.666 270.362L414.978 269.637ZM396.342 281.133C389.469 283.777 382.196 285.1 374.522 285.1V286.1C382.314 286.1 389.708 284.756 396.701 282.067L396.342 281.133ZM374.522 285.1C366.847 285.1 359.44 283.777 352.296 281.131L351.948 282.069C359.204 284.756 366.73 286.1 374.522 286.1V285.1ZM352.301 281.133C345.426 278.489 339.212 274.655 333.657 269.629L332.986 270.371C338.631 275.478 344.951 279.378 351.942 282.067L352.301 281.133ZM333.675 269.646C328.387 264.358 324.155 258.143 320.979 250.997L320.065 251.403C323.289 258.657 327.59 264.975 332.968 270.354L333.675 269.646ZM320.981 251.003C317.813 243.609 316.222 235.144 316.222 225.6H315.222C315.222 235.256 316.831 243.858 320.062 251.397L320.981 251.003ZM316.222 225.6C316.222 216.055 317.813 207.727 320.979 200.603L320.065 200.197C316.831 207.473 315.222 215.945 315.222 225.6H316.222ZM320.981 200.597C324.158 193.186 328.387 186.978 333.666 181.962L332.978 181.238C327.59 186.356 323.286 192.68 320.062 200.203L320.981 200.597ZM333.667 181.962C339.221 176.672 345.432 172.709 352.301 170.067L351.942 169.133C344.945 171.825 338.623 175.861 332.977 181.238L333.667 181.962ZM352.296 170.069C359.44 167.423 366.847 166.1 374.522 166.1V165.1C366.73 165.1 359.204 166.444 351.948 169.131L352.296 170.069ZM374.522 166.1C382.196 166.1 389.469 167.423 396.342 170.067L396.701 169.133C389.708 166.444 382.314 165.1 374.522 165.1V166.1ZM396.348 170.069C403.482 172.711 409.687 176.672 414.968 181.954L415.675 181.246C410.29 175.861 403.962 171.822 396.696 169.131L396.348 170.069ZM414.986 181.971C420.529 186.986 424.888 193.191 428.062 200.597L428.981 200.203C425.755 192.675 421.315 186.348 415.657 181.229L414.986 181.971ZM428.065 200.603C431.231 207.727 432.822 216.055 432.822 225.6H433.822C433.822 215.945 432.213 207.473 428.979 200.197L428.065 200.603ZM374.522 264.5C385.046 264.5 393.584 260.986 400.089 253.939L399.354 253.261C393.059 260.081 384.798 263.5 374.522 263.5V264.5ZM400.096 253.932C406.592 246.624 409.822 237.165 409.822 225.6H408.822C408.822 236.969 405.652 246.176 399.348 253.268L400.096 253.932ZM409.822 225.6C409.822 214.036 406.592 204.706 400.089 197.661L399.354 198.339C405.652 205.161 408.822 214.231 408.822 225.6H409.822ZM400.096 197.668C393.593 190.352 385.052 186.7 374.522 186.7V187.7C384.792 187.7 393.051 191.248 399.348 198.332L400.096 197.668ZM374.522 186.7C363.992 186.7 355.451 190.352 348.948 197.668L349.696 198.332C355.993 191.248 364.252 187.7 374.522 187.7V186.7ZM348.954 197.661C342.452 204.706 339.222 214.036 339.222 225.6H340.222C340.222 214.231 343.392 205.161 349.689 198.339L348.954 197.661ZM339.222 225.6C339.222 238.477 342.441 248.227 348.968 254.754L349.675 254.046C343.402 247.773 340.222 238.323 340.222 225.6H339.222ZM348.968 254.754C355.476 261.261 364.011 264.5 374.522 264.5V263.5C364.233 263.5 355.968 260.339 349.675 254.046L348.968 254.754ZM518.822 390.4C518.822 399.944 517.231 408.409 514.062 415.803L514.981 416.197C518.213 408.658 519.822 400.056 519.822 390.4H518.822ZM514.065 415.797C510.891 422.938 506.529 429.151 500.977 434.438L501.667 435.162C507.315 429.783 511.753 423.462 514.979 416.203L514.065 415.797ZM500.978 434.438C495.695 439.455 489.488 443.287 482.348 445.931L482.696 446.869C489.956 444.18 496.282 440.278 501.666 435.163L500.978 434.438ZM482.342 445.933C475.469 448.577 468.196 449.9 460.522 449.9V450.9C468.314 450.9 475.708 449.556 482.701 446.867L482.342 445.933ZM460.522 449.9C452.847 449.9 445.44 448.577 438.296 445.931L437.948 446.869C445.204 449.556 452.73 450.9 460.522 450.9V449.9ZM438.301 445.933C431.426 443.289 425.212 439.455 419.657 434.429L418.986 435.171C424.631 440.278 430.951 444.178 437.942 446.867L438.301 445.933ZM419.675 434.446C414.387 429.158 410.155 422.943 406.979 415.797L406.065 416.203C409.289 423.457 413.59 429.775 418.968 435.154L419.675 434.446ZM406.981 415.803C403.813 408.409 402.222 399.944 402.222 390.4H401.222C401.222 400.056 402.831 408.658 406.062 416.197L406.981 415.803ZM402.222 390.4C402.222 380.855 403.813 372.527 406.979 365.403L406.065 364.997C402.831 372.273 401.222 380.745 401.222 390.4H402.222ZM406.981 365.397C410.158 357.986 414.387 351.778 419.666 346.762L418.978 346.038C413.59 351.156 409.286 357.48 406.062 365.003L406.981 365.397ZM419.667 346.762C425.221 341.472 431.432 337.509 438.301 334.867L437.942 333.933C430.945 336.625 424.623 340.661 418.977 346.038L419.667 346.762ZM438.296 334.869C445.44 332.223 452.847 330.9 460.522 330.9V329.9C452.73 329.9 445.204 331.244 437.948 333.931L438.296 334.869ZM460.522 330.9C468.196 330.9 475.469 332.223 482.342 334.867L482.701 333.933C475.708 331.244 468.314 329.9 460.522 329.9V330.9ZM482.348 334.869C489.482 337.511 495.687 341.472 500.968 346.754L501.675 346.046C496.29 340.661 489.962 336.622 482.696 333.931L482.348 334.869ZM500.986 346.771C506.529 351.786 510.888 357.991 514.062 365.397L514.981 365.003C511.755 357.475 507.315 351.148 501.657 346.029L500.986 346.771ZM514.065 365.403C517.231 372.527 518.822 380.855 518.822 390.4H519.822C519.822 380.745 518.213 372.273 514.979 364.997L514.065 365.403ZM460.522 429.3C471.046 429.3 479.584 425.786 486.089 418.739L485.354 418.061C479.059 424.881 470.798 428.3 460.522 428.3V429.3ZM486.096 418.732C492.592 411.424 495.822 401.965 495.822 390.4H494.822C494.822 401.769 491.652 410.976 485.348 418.068L486.096 418.732ZM495.822 390.4C495.822 378.836 492.592 369.506 486.089 362.461L485.354 363.139C491.652 369.961 494.822 379.031 494.822 390.4H495.822ZM486.096 362.468C479.593 355.152 471.052 351.5 460.522 351.5V352.5C470.792 352.5 479.051 356.048 485.348 363.132L486.096 362.468ZM460.522 351.5C449.992 351.5 441.451 355.152 434.948 362.468L435.696 363.132C441.993 356.048 450.252 352.5 460.522 352.5V351.5ZM434.954 362.461C428.452 369.506 425.222 378.836 425.222 390.4H426.222C426.222 379.031 429.392 369.961 435.689 363.139L434.954 362.461ZM425.222 390.4C425.222 403.277 428.441 413.027 434.968 419.554L435.675 418.846C429.402 412.573 426.222 403.123 426.222 390.4H425.222ZM434.968 419.554C441.476 426.061 450.011 429.3 460.522 429.3V428.3C450.233 428.3 441.968 425.139 435.675 418.846L434.968 419.554ZM506.879 250.631L516.479 269.031L517.365 268.569L507.765 250.169L506.879 250.631ZM516.695 268.354L327.495 364.754L327.949 365.646L517.149 269.246L516.695 268.354ZM328.165 364.969L318.565 346.569L317.679 347.031L327.279 365.431L328.165 364.969ZM318.349 347.245L507.549 250.846L507.095 249.954L317.895 346.354L318.349 347.245Z" fill="#CECCC7"/>
</svg>
