<svg viewBox="0 0 767 540" fill="none" xmlns="http://www.w3.org/2000/svg">
<path d="M270.22 161.96H269.72V162.46H270.22V161.96ZM240.62 85L240.266 85.3536L240.271 85.358L240.62 85ZM111.86 64.28L111.669 63.8179L111.663 63.8204L111.86 64.28ZM75.6 90.18L75.2308 89.8428L75.23 89.8436L75.6 90.18ZM51.92 129.4L51.4537 129.219L51.4512 129.226L51.4488 129.233L51.92 129.4ZM43.78 256.68H43.28V257.18H43.78V256.68ZM52.66 256.68V257.18H52.9568L53.099 256.919L52.66 256.68ZM102.98 205.62L102.737 205.183L102.733 205.185L102.98 205.62ZM242.84 198.96L242.658 199.426L242.668 199.43L242.84 198.96ZM294.64 232.26L294.28 232.608L294.286 232.614L294.64 232.26ZM328.68 286.28L328.211 286.454L328.214 286.461L328.217 286.468L328.68 286.28ZM327.2 436.5L326.743 436.298L326.739 436.307L327.2 436.5ZM289.46 491.26L289.118 490.896L289.112 490.901L289.46 491.26ZM232.48 526.78L232.303 526.312L232.3 526.314L232.48 526.78ZM89.66 526.78L89.4798 527.246L89.4833 527.248L89.66 526.78ZM32.68 492L32.3321 492.359L32.3378 492.365L32.3437 492.37L32.68 492ZM-5.06 437.98L-5.52122 438.173L-5.51848 438.18L-5.51555 438.186L-5.06 437.98ZM-4.32 105.72L-4.78062 105.525L-4.32 105.72ZM34.16 49.48L34.5024 49.8445L34.5081 49.839L34.16 49.48ZM90.4 13.22L90.2198 12.7536L90.2162 12.755L90.4 13.22ZM228.78 11.74L228.945 11.2679L228.78 11.74ZM283.54 44.3L283.198 44.6652L283.205 44.671L283.54 44.3ZM319.06 95.36L318.598 95.5515L318.601 95.5584L318.604 95.5652L319.06 95.36ZM332.38 161.96V162.46H332.88V161.96H332.38ZM209.54 476.46L209.717 476.928L209.726 476.924L209.54 476.46ZM270.96 415.04L270.493 414.863L270.96 415.04ZM270.22 311.44L269.758 311.631L270.22 311.44ZM208.06 250.76L207.869 251.222L207.878 251.226L207.888 251.229L208.06 250.76ZM77.08 275.18L76.7347 274.818L76.7264 274.826L77.08 275.18ZM52.66 311.44L53.1196 311.637L52.66 311.44ZM51.92 415.78L51.4525 415.957L51.4546 415.963L51.92 415.78ZM112.6 476.46L112.409 476.922L112.418 476.926L112.428 476.929L112.6 476.46ZM270.72 161.96C270.72 129.782 260.815 103.992 240.969 84.642L240.271 85.358C259.892 104.488 269.72 130.004 269.72 161.96H270.72ZM240.974 84.6464C221.124 64.7968 193.604 54.9 158.48 54.9V55.9C193.41 55.9 220.649 65.7365 240.266 85.3535L240.974 84.6464ZM158.48 54.9C141.647 54.9 126.041 57.8708 111.669 63.818L112.051 64.742C126.292 58.8491 141.767 55.9 158.48 55.9V54.9ZM111.663 63.8204C97.7827 69.7691 85.6377 78.4447 75.2308 89.8428L75.9693 90.5171C86.2823 79.2218 98.3106 70.6308 112.057 64.7396L111.663 63.8204ZM75.23 89.8436C65.3173 100.748 57.3933 113.875 51.4537 129.219L52.3863 129.58C58.2867 114.338 66.1493 101.319 75.97 90.5163L75.23 89.8436ZM51.4488 129.233C46.0008 144.586 43.28 161.417 43.28 179.72H44.28C44.28 161.517 46.9858 144.801 52.3912 129.567L51.4488 129.233ZM43.28 179.72V256.68H44.28V179.72H43.28ZM43.78 257.18H52.66V256.18H43.78V257.18ZM53.099 256.919C64.8939 235.295 81.6004 218.343 103.227 206.055L102.733 205.185C80.9463 217.564 64.1061 234.651 52.2211 256.441L53.099 256.919ZM103.223 206.057C125.343 193.768 149.926 187.62 176.98 187.62V186.62C149.768 186.62 125.017 192.805 102.737 205.183L103.223 206.057ZM176.98 187.62C200.603 187.62 222.495 191.557 242.658 199.426L243.022 198.494C222.732 190.576 200.717 186.62 176.98 186.62V187.62ZM242.668 199.43C262.827 206.805 280.029 217.864 294.281 232.607L295 231.912C280.638 217.056 263.306 205.915 243.012 198.49L242.668 199.43ZM294.286 232.614C309.032 247.359 320.341 265.303 328.211 286.454L329.149 286.106C321.232 264.831 309.848 246.761 294.994 231.906L294.286 232.614ZM328.217 286.468C336.575 307.118 340.76 330.732 340.76 357.32H341.76C341.76 330.628 337.558 306.882 329.143 286.092L328.217 286.468ZM340.76 357.32V366.2H341.76V357.32H340.76ZM340.76 366.2C340.76 391.791 336.085 415.155 326.743 436.298L327.657 436.702C337.062 415.419 341.76 391.915 341.76 366.2H340.76ZM326.739 436.307C317.885 457.457 305.345 475.652 289.118 490.896L289.802 491.624C306.135 476.281 318.755 457.969 327.661 436.693L326.739 436.307ZM289.112 490.901C273.378 506.143 254.445 517.948 232.303 526.312L232.657 527.248C254.915 518.839 273.968 506.964 289.808 491.619L289.112 490.901ZM232.3 526.314C210.656 534.676 187.038 538.86 161.44 538.86V539.86C187.149 539.86 210.89 535.657 232.66 527.246L232.3 526.314ZM161.44 538.86C135.842 538.86 111.976 534.676 89.8367 526.312L89.4833 527.248C111.744 535.657 135.731 539.86 161.44 539.86V538.86ZM89.8402 526.314C68.1877 517.948 49.2481 506.386 33.0163 491.63L32.3437 492.37C48.6719 507.214 67.7189 518.839 89.4798 527.246L89.8402 526.314ZM33.0279 491.641C17.288 476.393 4.74387 458.439 -4.60445 437.774L-5.51555 438.186C3.8828 458.961 16.4987 477.021 32.3321 492.359L33.0279 491.641ZM-4.59878 437.787C-13.4509 416.64 -17.88 393.52 -17.88 368.42H-18.88C-18.88 393.64 -14.4291 416.893 -5.52122 438.173L-4.59878 437.787ZM-17.88 368.42V179.72H-18.88V368.42H-17.88ZM-17.88 179.72C-17.88 152.645 -13.2036 128.046 -3.85938 105.914L-4.78062 105.525C-14.183 127.794 -18.88 152.528 -18.88 179.72H-17.88ZM-3.85938 105.914C5.48899 83.7736 18.2771 65.0863 34.5023 49.8444L33.8177 49.1156C17.4829 64.4603 4.61768 83.2663 -4.78062 105.525L-3.85938 105.914ZM34.5081 49.839C50.7406 34.0984 69.4313 22.0476 90.5838 13.685L90.2162 12.755C68.942 21.1657 50.1395 33.2883 33.8119 49.1211L34.5081 49.839ZM90.5802 13.6864C112.226 5.32321 135.351 1.13995 159.96 1.13995V0.139954C135.235 0.139954 111.987 4.34338 90.2198 12.7536L90.5802 13.6864ZM159.96 1.13995C184.576 1.13995 207.46 4.83224 228.615 12.2121L228.945 11.2679C207.673 3.84769 184.677 0.139954 159.96 0.139954V1.13995ZM228.615 12.2121C249.768 19.5908 267.96 30.4094 283.198 44.6651L283.882 43.9348C268.534 29.5772 250.219 18.6891 228.945 11.2679L228.615 12.2121ZM283.205 44.671C298.44 58.4316 310.238 75.3889 318.598 95.5515L319.522 95.1685C311.109 74.8777 299.227 57.795 283.875 43.9289L283.205 44.671ZM318.604 95.5652C327.451 115.226 331.88 137.354 331.88 161.96H332.88C332.88 137.232 328.429 114.961 319.516 95.1548L318.604 95.5652ZM332.38 161.46H270.22V162.46H332.38V161.46ZM161.44 485.1C179.251 485.1 195.346 482.379 209.717 476.927L209.363 475.992C195.121 481.395 179.149 484.1 161.44 484.1V485.1ZM209.726 476.924C224.583 470.981 237.222 462.805 247.634 452.394L246.926 451.686C236.618 461.995 224.097 470.099 209.354 475.996L209.726 476.924ZM247.634 452.394C258.046 441.981 265.977 429.587 271.428 415.217L270.493 414.863C265.09 429.106 257.234 441.379 246.926 451.686L247.634 452.394ZM271.428 415.217C276.878 400.847 279.6 385 279.6 367.68H278.6C278.6 384.894 275.895 400.619 270.493 414.863L271.428 415.217ZM279.6 367.68V358.8H278.6V367.68H279.6ZM279.6 358.8C279.6 341.475 276.63 325.623 270.682 311.249L269.758 311.631C275.65 325.871 278.6 341.591 278.6 358.8H279.6ZM270.682 311.249C264.738 296.885 256.563 284.496 246.154 274.086L245.446 274.794C255.757 285.104 263.862 297.382 269.758 311.631L270.682 311.249ZM246.154 274.086C235.738 263.671 223.095 255.74 208.232 250.291L207.888 251.229C222.625 256.633 235.142 264.489 245.446 274.794L246.154 274.086ZM208.251 250.298C193.879 244.351 178.273 241.38 161.44 241.38V242.38C178.153 242.38 193.628 245.329 207.869 251.222L208.251 250.298ZM161.44 241.38C144.607 241.38 129.001 244.351 114.629 250.298L115.011 251.222C129.252 245.329 144.727 242.38 161.44 242.38V241.38ZM114.629 250.298C100.267 256.241 87.6342 264.414 76.7348 274.818L77.4252 275.542C88.2324 265.226 100.76 257.119 115.011 251.222L114.629 250.298ZM76.7264 274.826C66.3203 285.233 58.1448 297.373 52.2004 311.243L53.1196 311.637C59.0152 297.881 67.1197 285.847 77.4335 275.534L76.7264 274.826ZM52.2004 311.243C46.2524 325.122 43.28 339.989 43.28 355.84H44.28C44.28 340.118 47.2276 325.385 53.1196 311.637L52.2004 311.243ZM43.28 355.84V369.9H44.28V355.84H43.28ZM43.28 369.9C43.28 386.237 46.003 401.59 51.4525 415.957L52.3875 415.603C46.9837 401.356 44.28 386.123 44.28 369.9H43.28ZM51.4546 415.963C56.9061 429.839 64.8372 441.984 75.2465 452.394L75.9536 451.686C65.6428 441.376 57.7872 429.347 52.3854 415.597L51.4546 415.963ZM75.2465 452.394C85.6555 462.803 98.0449 470.978 112.409 476.922L112.791 475.998C98.5417 470.102 86.2645 461.997 75.9536 451.686L75.2465 452.394ZM112.428 476.929C127.29 482.379 143.629 485.1 161.44 485.1V484.1C143.731 484.1 127.51 481.395 112.772 475.991L112.428 476.929ZM598.266 164.92L598.722 165.123L598.725 165.117L598.266 164.92ZM573.846 199.7L574.19 200.062L574.19 200.062L573.846 199.7ZM539.065 221.16L538.892 220.691L538.886 220.693L539.065 221.16ZM456.925 221.16L456.746 221.627L456.752 221.629L456.925 221.16ZM422.145 199.7L421.792 200.054L421.801 200.062L421.81 200.071L422.145 199.7ZM398.465 164.92L398.006 165.117L398.009 165.123L398.465 164.92ZM398.465 70.94L398.922 71.1431L398.925 71.1369L398.465 70.94ZM422.145 36.16L422.49 36.5225L422.49 36.5221L422.145 36.16ZM456.925 13.96L456.752 13.4911L456.746 13.4933L456.925 13.96ZM539.065 13.96L538.886 14.4267L538.892 14.4288L539.065 13.96ZM573.846 36.16L573.492 36.5135L573.501 36.5224L573.51 36.5308L573.846 36.16ZM598.266 70.94L597.806 71.137L597.809 71.1431L598.266 70.94ZM544.985 169.36L545.353 169.699L545.359 169.692L544.985 169.36ZM544.985 66.5L544.612 66.8322L544.618 66.8391L544.985 66.5ZM451.745 66.5L452.113 66.8392L452.119 66.8322L451.745 66.5ZM451.745 170.84L452.099 170.486L451.745 170.84ZM757.365 469.8L757.822 470.003L757.825 469.997L757.365 469.8ZM732.945 504.58L733.29 504.943L733.29 504.942L732.945 504.58ZM698.165 526.04L697.992 525.571L697.986 525.573L698.165 526.04ZM616.025 526.04L615.846 526.507L615.852 526.509L616.025 526.04ZM581.245 504.58L580.892 504.934L580.901 504.942L580.91 504.951L581.245 504.58ZM557.565 469.8L557.106 469.997L557.109 470.003L557.565 469.8ZM557.565 375.82L558.022 376.023L558.025 376.017L557.565 375.82ZM581.245 341.04L581.59 341.402L581.59 341.402L581.245 341.04ZM616.025 318.84L615.852 318.371L615.846 318.373L616.025 318.84ZM698.165 318.84L697.986 319.307L697.992 319.309L698.165 318.84ZM732.945 341.04L732.592 341.394L732.601 341.402L732.61 341.411L732.945 341.04ZM757.365 375.82L756.906 376.017L756.909 376.023L757.365 375.82ZM704.086 474.24L704.453 474.579L704.459 474.572L704.086 474.24ZM704.086 371.38L703.712 371.712L703.718 371.719L704.086 371.38ZM610.845 371.38L611.213 371.719L611.219 371.712L610.845 371.38ZM610.845 475.72L610.492 476.074L610.845 475.72ZM744.045 163.44L744.489 163.209L744.26 162.77L743.818 162.994L744.045 163.44ZM761.805 197.48L762.032 197.926L762.482 197.696L762.249 197.249L761.805 197.48ZM411.785 375.82L411.342 376.051L411.571 376.49L412.012 376.266L411.785 375.82ZM394.025 341.78L393.798 341.334L393.349 341.564L393.582 342.011L394.025 341.78ZM606.646 117.56C606.646 135.264 603.695 150.982 597.806 164.723L598.725 165.117C604.676 151.231 607.646 135.376 607.646 117.56H606.646ZM597.809 164.717C591.915 177.978 583.812 189.517 573.501 199.338L574.19 200.062C584.599 190.149 592.776 178.502 598.722 165.123L597.809 164.717ZM573.501 199.337C563.686 208.662 552.151 215.78 538.892 220.691L539.239 221.629C552.62 216.673 564.272 209.484 574.19 200.062L573.501 199.337ZM538.886 220.693C526.119 225.604 512.613 228.06 498.365 228.06V229.06C512.731 229.06 526.359 226.583 539.245 221.627L538.886 220.693ZM498.365 228.06C484.118 228.06 470.363 225.604 457.099 220.691L456.752 221.629C470.128 226.583 484 229.06 498.365 229.06V228.06ZM457.105 220.693C444.337 215.782 432.796 208.662 422.481 199.329L421.81 200.071C432.215 209.485 443.861 216.671 456.746 221.627L457.105 220.693ZM422.499 199.346C412.678 189.525 404.819 177.983 398.922 164.717L398.009 165.123C403.952 178.497 411.88 190.142 421.792 200.054L422.499 199.346ZM398.925 164.723C393.036 150.982 390.085 135.264 390.085 117.56H389.085C389.085 135.376 392.055 151.231 398.006 165.117L398.925 164.723ZM390.085 117.56C390.085 99.855 393.036 84.3867 398.922 71.1431L398.009 70.7369C392.055 84.1332 389.085 99.745 389.085 117.56H390.085ZM398.925 71.1369C404.821 57.3795 412.677 45.8444 422.49 36.5225L421.801 35.7975C411.88 45.2223 403.95 56.8738 398.006 70.743L398.925 71.1369ZM422.49 36.5221C432.805 26.6989 444.342 19.3354 457.105 14.4266L456.746 13.4933C443.855 18.4512 432.206 25.8877 421.801 35.7979L422.49 36.5221ZM457.099 14.4288C470.363 9.51627 484.118 7.05997 498.365 7.05997V6.05997C484 6.05997 470.128 8.53702 456.752 13.4911L457.099 14.4288ZM498.365 7.05997C512.613 7.05997 526.119 9.51624 538.886 14.4266L539.245 13.4933C526.359 8.53705 512.731 6.05997 498.365 6.05997V7.05997ZM538.892 14.4288C552.146 19.3376 563.677 26.6988 573.492 36.5135L574.199 35.8064C564.28 25.8879 552.625 18.449 539.239 13.4911L538.892 14.4288ZM573.51 36.5308C583.813 45.8522 591.912 57.3847 597.806 71.1369L598.725 70.743C592.779 56.8686 584.598 45.2144 574.181 35.7892L573.51 36.5308ZM597.809 71.1431C603.695 84.3867 606.646 99.855 606.646 117.56H607.646C607.646 99.745 604.676 84.1332 598.722 70.7369L597.809 71.1431ZM498.365 189.1C517.729 189.1 533.408 182.639 545.353 169.699L544.618 169.021C532.883 181.734 517.482 188.1 498.365 188.1V189.1ZM545.359 169.692C557.296 156.264 563.245 138.871 563.245 117.56H562.245C562.245 138.675 556.355 155.816 544.612 169.028L545.359 169.692ZM563.245 117.56C563.245 96.2494 557.296 79.0989 545.353 66.1609L544.618 66.8391C556.355 79.5544 562.245 96.4438 562.245 117.56H563.245ZM545.359 66.1678C533.416 52.7319 517.735 46.02 498.365 46.02V47.02C517.475 47.02 532.875 53.6281 544.612 66.8322L545.359 66.1678ZM498.365 46.02C478.995 46.02 463.315 52.7319 451.372 66.1678L452.119 66.8322C463.856 53.6281 479.255 47.02 498.365 47.02V46.02ZM451.378 66.1609C439.435 79.0989 433.485 96.2494 433.485 117.56H434.485C434.485 96.4438 440.376 79.5544 452.113 66.8391L451.378 66.1609ZM433.485 117.56C433.485 141.317 439.425 159.227 451.392 171.194L452.099 170.486C440.386 158.773 434.485 141.163 434.485 117.56H433.485ZM451.392 171.194C463.34 183.141 479.014 189.1 498.365 189.1V188.1C479.237 188.1 463.831 182.219 452.099 170.486L451.392 171.194ZM765.745 422.44C765.745 440.144 762.795 455.862 756.906 469.603L757.825 469.997C763.776 456.111 766.745 440.256 766.745 422.44H765.745ZM756.909 469.597C751.015 482.858 742.912 494.397 732.601 504.218L733.29 504.942C743.699 495.029 751.876 483.382 757.822 470.003L756.909 469.597ZM732.601 504.218C722.786 513.542 711.251 520.66 697.992 525.571L698.339 526.509C711.72 521.553 723.372 514.365 733.29 504.943L732.601 504.218ZM697.986 525.573C685.219 530.484 671.713 532.94 657.466 532.94V533.94C671.831 533.94 685.459 531.463 698.345 526.507L697.986 525.573ZM657.466 532.94C643.218 532.94 629.463 530.484 616.199 525.571L615.852 526.509C629.228 531.463 643.1 533.94 657.466 533.94V532.94ZM616.205 525.573C603.437 520.662 591.896 513.542 581.581 504.209L580.91 504.951C591.315 514.365 602.961 521.551 615.846 526.507L616.205 525.573ZM581.599 504.226C571.778 494.405 563.919 482.863 558.022 469.597L557.109 470.003C563.052 483.377 570.98 495.022 580.892 504.934L581.599 504.226ZM558.025 469.603C552.136 455.862 549.185 440.144 549.185 422.44H548.185C548.185 440.256 551.155 456.111 557.106 469.997L558.025 469.603ZM549.185 422.44C549.185 404.735 552.136 389.267 558.022 376.023L557.109 375.617C551.155 389.013 548.185 404.625 548.185 422.44H549.185ZM558.025 376.017C563.921 362.26 571.777 350.724 581.59 341.402L580.901 340.677C570.98 350.102 563.05 361.754 557.106 375.623L558.025 376.017ZM581.59 341.402C591.905 331.579 603.442 324.215 616.205 319.307L615.846 318.373C602.955 323.331 591.306 330.768 580.901 340.678L581.59 341.402ZM616.199 319.309C629.463 314.396 643.218 311.94 657.466 311.94V310.94C643.1 310.94 629.228 313.417 615.852 318.371L616.199 319.309ZM657.466 311.94C671.713 311.94 685.219 314.396 697.986 319.307L698.345 318.373C685.459 313.417 671.831 310.94 657.466 310.94V311.94ZM697.992 319.309C711.245 324.218 722.777 331.579 732.592 341.394L733.299 340.686C723.38 330.768 711.725 323.329 698.339 318.371L697.992 319.309ZM732.61 341.411C742.913 350.732 751.012 362.265 756.906 376.017L757.825 375.623C751.879 361.749 743.698 350.094 733.281 340.669L732.61 341.411ZM756.909 376.023C762.795 389.267 765.745 404.735 765.745 422.44H766.745C766.745 404.625 763.776 389.013 757.822 375.617L756.909 376.023ZM657.466 493.98C676.829 493.98 692.508 487.519 704.453 474.579L703.718 473.901C691.983 486.614 676.582 492.98 657.466 492.98V493.98ZM704.459 474.572C716.396 461.144 722.346 443.751 722.346 422.44H721.346C721.346 443.555 715.455 460.696 703.712 473.908L704.459 474.572ZM722.346 422.44C722.346 401.129 716.396 383.979 704.453 371.041L703.718 371.719C715.455 384.434 721.346 401.324 721.346 422.44H722.346ZM704.459 371.048C692.516 357.612 676.836 350.9 657.466 350.9V351.9C676.575 351.9 691.975 358.508 703.712 371.712L704.459 371.048ZM657.466 350.9C638.095 350.9 622.415 357.612 610.472 371.048L611.219 371.712C622.956 358.508 638.356 351.9 657.466 351.9V350.9ZM610.478 371.041C598.535 383.979 592.586 401.129 592.586 422.44H593.586C593.586 401.324 599.476 384.434 611.213 371.719L610.478 371.041ZM592.586 422.44C592.586 446.197 598.525 464.107 610.492 476.074L611.199 475.366C599.486 463.653 593.586 446.043 593.586 422.44H592.586ZM610.492 476.074C622.44 488.021 638.114 493.98 657.466 493.98V492.98C638.337 492.98 622.931 487.099 611.199 475.366L610.492 476.074ZM743.602 163.671L761.362 197.711L762.249 197.249L744.489 163.209L743.602 163.671ZM761.578 197.034L411.558 375.375L412.012 376.266L762.032 197.926L761.578 197.034ZM412.229 375.589L394.469 341.549L393.582 342.011L411.342 376.051L412.229 375.589ZM394.252 342.225L744.272 163.885L743.818 162.994L393.798 341.334L394.252 342.225Z" fill="#ceccc7"/>
</svg>
